<mxfile host="app.diagrams.net" modified="2024-03-25T22:46:19.035Z" agent="Mozilla/5.0 (Windows NT 10.0; Win64; x64) AppleWebKit/537.36 (KHTML, like Gecko) Chrome/121.0.0.0 Safari/537.36 OPR/107.0.0.0" etag="9pyMl3m6kJC-G91roK6s" version="24.1.0" type="device">
  <diagram name="Страница — 1" id="47_cSmajdRTyBQpQn6iS">
    <mxGraphModel dx="2748" dy="938" grid="1" gridSize="10" guides="1" tooltips="1" connect="1" arrows="1" fold="1" page="1" pageScale="1" pageWidth="827" pageHeight="1169" math="0" shadow="0">
      <root>
        <mxCell id="0" />
        <mxCell id="1" parent="0" />
        <mxCell id="T3Aywn-49jzH1_f92ttT-1" value="" style="rounded=0;whiteSpace=wrap;html=1;" parent="1" vertex="1">
          <mxGeometry x="-220" y="80" width="1320" height="800" as="geometry" />
        </mxCell>
        <mxCell id="T3Aywn-49jzH1_f92ttT-2" value="&lt;font style=&quot;font-size: 20px;&quot;&gt;музыка вкл/выкл&lt;/font&gt;" style="rounded=0;whiteSpace=wrap;html=1;" parent="1" vertex="1">
          <mxGeometry x="140" y="110" width="190" height="60" as="geometry" />
        </mxCell>
        <mxCell id="T3Aywn-49jzH1_f92ttT-3" value="&lt;font style=&quot;font-size: 24px;&quot;&gt;Главное меню&lt;/font&gt;" style="rounded=0;whiteSpace=wrap;html=1;" parent="1" vertex="1">
          <mxGeometry x="345" y="110" width="190" height="60" as="geometry" />
        </mxCell>
        <mxCell id="T3Aywn-49jzH1_f92ttT-4" value="&lt;font style=&quot;font-size: 24px;&quot;&gt;Выход&lt;/font&gt;" style="rounded=0;whiteSpace=wrap;html=1;" parent="1" vertex="1">
          <mxGeometry x="550" y="110" width="190" height="60" as="geometry" />
        </mxCell>
        <mxCell id="T3Aywn-49jzH1_f92ttT-6" value="&lt;font style=&quot;font-size: 24px;&quot;&gt;Трасса&lt;/font&gt;&lt;div&gt;&lt;font style=&quot;font-size: 24px;&quot;&gt;&lt;br&gt;Вражеские машинки&lt;/font&gt;&lt;/div&gt;&lt;div&gt;&lt;font style=&quot;font-size: 24px;&quot;&gt;&lt;br&gt;Моя машинка&lt;/font&gt;&lt;/div&gt;" style="rounded=0;whiteSpace=wrap;html=1;" parent="1" vertex="1">
          <mxGeometry x="-75" y="200" width="1030" height="610" as="geometry" />
        </mxCell>
        <mxCell id="w_9SQPiEPglnn_K8S_wK-1" value="&lt;font style=&quot;font-size: 18px;&quot;&gt;Счёт: ---&lt;/font&gt;" style="rounded=0;whiteSpace=wrap;html=1;" vertex="1" parent="1">
          <mxGeometry x="385" y="200" width="110" height="30" as="geometry" />
        </mxCell>
      </root>
    </mxGraphModel>
  </diagram>
</mxfile>
